<svg xmlns="http://www.w3.org/2000/svg" viewBox="0 0 57 62" preserveAspectRatio="none">
  <path d="M 48.77 5.00 L 46.06 5.77 L 40.59 12.29 L 33.71 15.00 L 31.33 18.65 L 30.24 20.85 L 28.48 22.50 L 22.96 25.48 L 13.06 40.30 L 11.08 41.14 L 8.31 40.49 L 6.58 43.81 L 5.00 45.56 L 6.19 48.44 L 8.92 51.22 L 13.45 50.07 L 10.70 54.05 L 13.83 55.47 L 14.06 57.88 L 17.00 57.76 L 23.10 56.64 L 27.38 53.37 L 30.20 52.18 L 33.85 51.10 L 36.96 49.49 L 40.57 48.79 L 43.14 47.82 L 42.15 45.67 L 39.08 42.99 L 38.12 41.49 L 37.82 39.22 L 35.72 37.86 L 35.22 34.86 L 36.14 29.00 L 39.88 24.63 L 42.89 20.65 L 46.42 18.01 L 48.84 12.20 L 52.24 8.75 L 51.99 7.21 L 48.77 5.00 Z" fill="rgba(44,95,74,0.15)" stroke="#2c5f4a" stroke-width="1.2" stroke-linejoin="round" stroke-linecap="round"/>
</svg>
