<svg xmlns="http://www.w3.org/2000/svg" viewBox="0 0 800 344" preserveAspectRatio="none">
  <path d="M 0 344 L 800 344 L 800.0 254.7 L 798.0 254.7 L 794.0 256.7 L 782.0 255.5 L 778.0 255.0 L 758.0 249.1 L 754.0 247.9 L 750.0 228.9 L 746.0 227.3 L 742.0 223.3 L 738.0 220.7 L 734.0 220.9 L 730.0 218.7 L 726.0 216.5 L 722.0 214.5 L 718.0 184.8 L 714.0 175.5 L 710.0 182.4 L 706.0 193.8 L 666.0 211.2 L 662.0 202.9 L 658.0 197.1 L 654.0 194.9 L 650.0 189.7 L 646.0 177.0 L 642.0 224.4 L 638.0 226.9 L 630.0 232.7 L 622.0 234.8 L 618.0 237.2 L 614.0 244.2 L 610.0 245.2 L 606.0 253.3 L 602.0 259.3 L 598.0 270.0 L 594.0 283.3 L 590.0 280.7 L 586.0 277.8 L 582.0 274.7 L 578.0 269.0 L 574.0 265.1 L 566.0 262.5 L 562.0 255.1 L 554.0 254.3 L 542.0 251.8 L 538.0 249.6 L 530.0 250.7 L 526.0 175.2 L 522.0 185.2 L 518.0 188.4 L 514.0 193.4 L 510.0 194.7 L 506.0 195.2 L 502.0 260.1 L 498.0 192.8 L 490.0 193.2 L 486.0 192.2 L 482.0 193.4 L 478.0 193.1 L 474.0 194.3 L 470.0 197.7 L 466.0 198.5 L 462.0 199.4 L 454.0 196.1 L 450.0 176.0 L 446.0 175.9 L 442.0 177.2 L 438.0 175.1 L 434.0 175.8 L 430.0 175.5 L 426.0 183.9 L 414.0 191.5 L 406.0 203.1 L 402.0 227.0 L 398.0 189.2 L 394.0 193.4 L 390.0 175.9 L 386.0 177.2 L 382.0 176.2 L 378.0 177.7 L 374.0 179.8 L 370.0 198.6 L 366.0 201.5 L 362.0 204.0 L 358.0 204.1 L 354.0 198.4 L 350.0 197.3 L 346.0 175.2 L 342.0 177.2 L 338.0 209.1 L 334.0 197.8 L 330.0 207.2 L 326.0 204.3 L 322.0 217.2 L 318.0 202.0 L 314.0 201.5 L 310.0 197.2 L 306.0 194.6 L 302.0 192.5 L 298.0 191.2 L 294.0 186.2 L 290.0 192.8 L 286.0 183.9 L 282.0 185.4 L 278.0 185.0 L 274.0 187.3 L 270.0 233.1 L 266.0 186.3 L 262.0 190.4 L 258.0 232.0 L 254.0 186.9 L 250.0 187.6 L 246.0 191.1 L 242.0 186.8 L 238.0 186.8 L 234.0 195.8 L 230.0 196.9 L 226.0 200.3 L 222.0 198.9 L 218.0 197.3 L 214.0 193.9 L 210.0 193.7 L 206.0 187.2 L 202.0 186.3 L 198.0 231.3 L 194.0 184.9 L 190.0 195.3 L 186.0 194.6 L 182.0 189.6 L 178.0 182.7 L 174.0 176.7 L 170.0 198.7 L 166.0 198.0 L 162.0 198.1 L 158.0 199.6 L 154.0 198.9 L 150.0 199.3 L 146.0 204.1 L 142.0 206.2 L 134.0 205.8 L 130.0 208.5 L 126.0 209.3 L 122.0 215.4 L 118.0 227.3 L 114.0 231.9 L 110.0 233.8 L 106.0 233.4 L 102.0 230.6 L 98.0 240.2 L 94.0 234.9 L 90.0 233.4 L 86.0 237.9 L 82.0 239.3 L 78.0 243.0 L 74.0 245.9 L 70.0 254.9 L 66.0 261.2 L 62.0 260.8 L 58.0 250.3 L 54.0 248.3 L 50.0 249.8 L 46.0 247.7 L 42.0 252.7 L 38.0 218.1 L 34.0 210.7 L 30.0 224.3 L 26.0 208.5 L 22.0 212.2 L 18.0 219.8 L 14.0 269.4 L 10.0 254.8 L 6.0 253.4 L 2.0 256.5 L 0.0 256.5 Z" fill="#111111" stroke="none"/>
</svg>