<svg xmlns="http://www.w3.org/2000/svg" viewBox="0 0 800 344" preserveAspectRatio="none">
  <path d="M 0 344 L 800 344 L 800 156.75 L 692.38 156.75 L 691.39 154.60 L 689.81 157.72 L 687.36 150.42 L 687.06 148.15 L 686.20 158.42 L 685.38 137.93 L 684.96 146.79 L 684.46 143.79 L 683.09 160.03 L 679.44 161.11 L 676.62 162.30 L 672.34 165.57 L 666.24 166.69 L 664.74 211.23 L 663.76 213.05 L 663.30 166.81 L 663.07 164.40 L 662.69 159.00 L 662.46 212.02 L 662.30 149.23 L 661.83 211.05 L 660.32 150.07 L 660.03 202.88 L 659.99 198.95 L 659.94 162.98 L 658.43 198.30 L 658.37 212.78 L 658.16 160.15 L 657.99 205.41 L 657.55 149.42 L 655.82 152.74 L 655.43 157.37 L 655.19 216.52 L 654.97 194.94 L 654.90 206.72 L 654.70 210.46 L 654.24 154.49 L 653.57 218.05 L 652.86 209.61 L 652.33 168.29 L 652.16 162.45 L 651.69 189.65 L 650.58 168.46 L 650.53 161.48 L 650.44 164.44 L 650.07 191.31 L 650.00 171.90 L 649.88 173.97 L 649.13 218.54 L 648.47 191.38 L 648.31 163.64 L 647.98 220.64 L 647.98 182.44 L 647.66 176.97 L 647.58 180.25 L 647.23 182.93 L 647.06 162.10 L 646.97 189.80 L 646.40 185.18 L 646.31 187.23 L 646.27 161.60 L 646.25 163.92 L 644.39 220.87 L 643.28 224.38 L 642.05 162.95 L 640.21 224.88 L 639.20 226.86 L 633.73 162.60 L 630.36 164.72 L 628.92 232.68 L 626.70 164.61 L 623.66 162.60 L 622.18 234.77 L 621.24 159.40 L 620.23 238.67 L 618.65 237.15 L 616.67 243.10 L 616.31 159.79 L 614.95 136.43 L 614.51 159.25 L 612.33 244.18 L 611.76 156.93 L 610.74 248.88 L 610.56 245.15 L 608.61 156.13 L 608.58 250.36 L 605.61 253.32 L 605.36 150.08 L 604.23 137.69 L 603.99 148.64 L 603.66 153.74 L 601.99 259.30 L 601.96 138.09 L 601.12 147.83 L 598.46 146.03 L 598.17 269.96 L 597.32 274.71 L 596.14 278.36 L 595.22 283.31 L 595.12 149.78 L 595.10 286.21 L 594.13 150.35 L 593.36 287.76 L 592.06 149.85 L 591.47 145.08 L 591.47 148.58 L 591.01 283.50 L 589.18 141.37 L 587.15 280.99 L 587.14 141.63 L 585.80 145.34 L 584.67 277.78 L 584.46 280.38 L 583.76 143.35 L 581.30 146.95 L 581.13 274.72 L 576.85 146.03 L 576.07 269.01 L 574.23 265.05 L 573.69 146.77 L 569.61 145.30 L 567.31 144.81 L 567.04 262.48 L 564.23 143.35 L 563.67 259.54 L 561.53 255.13 L 558.29 144.87 L 555.06 149.41 L 552.62 254.32 L 551.19 151.45 L 549.01 135.57 L 543.39 154.49 L 540.99 251.83 L 539.92 156.80 L 537.99 249.58 L 537.05 159.21 L 536.10 142.30 L 533.68 141.37 L 533.40 146.44 L 533.18 161.71 L 531.54 144.62 L 529.53 162.74 L 529.47 250.67 L 527.23 160.73 L 526.43 175.21 L 526.16 169.80 L 525.56 180.97 L 525.54 167.61 L 525.09 161.41 L 524.64 183.30 L 522.98 185.23 L 522.91 164.19 L 521.50 160.73 L 521.31 252.33 L 518.98 254.09 L 518.72 188.42 L 516.82 160.32 L 513.82 193.41 L 511.73 194.68 L 509.06 195.40 L 505.94 195.21 L 503.87 137.30 L 503.35 260.12 L 501.98 265.14 L 501.38 263.09 L 500.03 266.79 L 499.84 193.30 L 496.88 267.88 L 496.88 192.81 L 496.58 137.23 L 490.57 268.57 L 489.93 193.19 L 488.25 270.10 L 487.54 146.91 L 487.52 192.27 L 485.63 270.95 L 485.57 148.34 L 485.20 192.20 L 484.23 144.64 L 483.90 270.10 L 483.03 146.82 L 482.93 143.17 L 482.31 193.40 L 481.75 149.85 L 481.35 271.47 L 480.21 142.47 L 479.68 193.12 L 479.37 140.11 L 478.64 284.80 L 478.52 148.04 L 478.51 150.16 L 478.45 273.73 L 478.10 137.72 L 477.07 278.82 L 477.07 287.00 L 477.07 142.57 L 476.58 276.34 L 476.41 289.92 L 476.25 280.33 L 475.86 194.28 L 475.66 136.98 L 475.20 196.54 L 473.42 143.35 L 471.34 145.01 L 470.79 197.66 L 470.76 152.01 L 470.03 154.41 L 469.91 149.41 L 469.03 146.20 L 467.84 155.47 L 467.40 147.76 L 466.28 198.53 L 465.67 146.03 L 464.04 154.04 L 463.01 146.49 L 462.92 199.67 L 462.58 155.20 L 461.34 142.57 L 461.20 150.70 L 460.42 199.45 L 460.19 156.01 L 459.27 147.65 L 458.68 151.21 L 457.45 142.29 L 457.42 147.28 L 457.34 158.43 L 456.18 168.92 L 456.15 141.63 L 456.15 159.00 L 455.30 197.42 L 455.20 146.54 L 454.85 168.83 L 454.35 142.57 L 454.12 196.10 L 454.08 150.88 L 454.01 158.12 L 453.49 150.78 L 453.40 167.18 L 453.28 155.88 L 451.97 192.09 L 451.82 148.90 L 451.39 160.30 L 451.35 166.48 L 450.89 162.84 L 450.06 176.00 L 450.02 156.41 L 448.99 171.59 L 448.75 164.74 L 448.52 167.01 L 448.37 184.32 L 448.14 153.59 L 447.86 176.87 L 447.65 168.68 L 446.87 172.05 L 446.65 150.05 L 446.50 175.95 L 445.60 154.11 L 444.27 164.61 L 443.28 160.31 L 442.91 156.42 L 442.73 159.48 L 442.54 162.25 L 441.37 177.25 L 440.50 159.00 L 439.76 166.70 L 439.63 163.33 L 438.61 165.90 L 438.51 175.12 L 437.04 173.11 L 435.76 156.19 L 435.51 179.05 L 435.31 175.82 L 435.27 159.09 L 434.98 176.86 L 434.52 180.25 L 434.35 155.87 L 434.09 182.34 L 433.79 162.90 L 433.17 151.13 L 432.71 157.70 L 432.40 164.01 L 431.08 176.66 L 429.89 158.44 L 429.52 164.57 L 429.52 152.42 L 427.00 164.59 L 426.90 183.92 L 425.72 154.60 L 425.33 163.75 L 424.98 185.94 L 424.45 162.07 L 423.58 151.59 L 421.31 152.57 L 418.88 155.03 L 416.22 160.25 L 416.22 156.41 L 415.51 196.59 L 415.39 161.20 L 415.18 191.47 L 414.21 156.76 L 414.11 168.56 L 413.61 199.24 L 413.50 161.57 L 413.44 169.79 L 413.31 167.05 L 413.29 202.36 L 411.40 170.75 L 411.21 166.05 L 411.06 169.67 L 409.70 161.60 L 409.33 169.36 L 407.90 203.09 L 407.47 165.25 L 406.71 162.44 L 406.07 168.03 L 405.97 221.81 L 405.77 218.05 L 405.72 165.65 L 405.08 214.57 L 404.94 166.95 L 403.37 227.02 L 400.79 165.76 L 399.43 230.32 L 398.91 189.22 L 398.03 195.45 L 397.11 165.92 L 396.77 191.12 L 396.24 196.85 L 396.01 232.26 L 394.21 163.56 L 393.89 234.02 L 393.72 197.35 L 393.21 193.41 L 392.78 165.13 L 392.01 194.84 L 391.21 178.35 L 390.84 175.94 L 389.85 181.39 L 389.38 166.68 L 388.58 163.33 L 387.99 181.96 L 387.90 166.63 L 387.53 169.39 L 387.53 177.25 L 387.41 161.76 L 387.13 288.93 L 386.71 170.97 L 386.66 165.13 L 386.49 168.62 L 385.66 286.94 L 385.24 159.99 L 385.08 180.60 L 384.93 148.55 L 384.24 277.81 L 384.07 284.35 L 383.82 278.70 L 383.66 156.83 L 383.44 168.91 L 383.23 146.28 L 382.27 174.30 L 382.15 150.94 L 381.98 285.00 L 381.61 279.18 L 381.47 149.41 L 381.43 152.95 L 381.33 283.90 L 381.08 238.50 L 380.66 176.16 L 380.60 171.11 L 380.60 145.08 L 379.33 277.63 L 379.05 282.64 L 378.63 146.09 L 378.22 180.81 L 377.70 177.67 L 377.26 241.40 L 377.14 198.86 L 376.15 146.72 L 375.34 179.84 L 373.61 245.09 L 373.60 146.67 L 372.96 203.22 L 371.94 248.30 L 371.83 198.61 L 371.01 270.10 L 371.01 261.37 L 370.88 279.11 L 370.73 202.95 L 370.30 274.42 L 369.90 249.90 L 369.56 199.37 L 369.35 264.90 L 369.33 275.08 L 369.23 200.75 L 369.03 144.38 L 368.86 262.23 L 368.63 271.74 L 368.49 278.48 L 367.73 201.71 L 367.64 203.75 L 367.62 264.04 L 367.21 267.27 L 367.15 270.17 L 366.32 275.76 L 366.24 144.68 L 365.94 258.63 L 365.89 205.39 L 365.72 208.49 L 365.63 277.20 L 365.04 201.54 L 363.59 210.58 L 361.50 146.82 L 361.36 155.28 L 361.32 258.49 L 360.81 210.64 L 360.75 204.02 L 359.29 152.21 L 359.29 206.82 L 359.26 209.18 L 358.98 204.13 L 358.90 157.47 L 358.48 259.71 L 357.23 149.58 L 357.16 206.72 L 356.66 258.86 L 355.52 153.99 L 355.44 199.80 L 355.43 205.69 L 355.15 160.19 L 354.87 256.19 L 353.71 208.54 L 353.07 198.44 L 353.05 160.81 L 352.95 261.01 L 352.39 219.85 L 352.14 208.68 L 351.52 158.88 L 351.19 258.88 L 350.26 220.64 L 349.92 208.02 L 349.79 197.32 L 349.79 261.84 L 348.53 217.18 L 348.53 208.54 L 348.53 169.85 L 348.15 258.82 L 347.93 172.93 L 347.85 165.13 L 347.60 220.32 L 347.58 207.59 L 347.02 162.47 L 346.30 196.99 L 346.26 216.35 L 345.85 160.73 L 345.77 260.16 L 345.07 209.32 L 344.74 175.25 L 344.68 192.31 L 344.39 187.81 L 344.11 216.32 L 344.05 206.81 L 343.56 218.60 L 343.24 198.00 L 343.24 177.25 L 342.97 260.03 L 342.88 182.80 L 342.41 217.15 L 342.16 203.96 L 341.52 218.91 L 341.26 200.98 L 340.66 196.34 L 340.43 266.12 L 339.37 261.22 L 338.77 264.44 L 337.92 209.07 L 337.34 262.31 L 337.08 265.05 L 336.68 212.51 L 336.66 268.37 L 335.73 197.78 L 335.26 204.30 L 334.84 198.80 L 334.83 264.46 L 334.61 201.97 L 334.22 271.61 L 332.12 271.54 L 332.02 210.65 L 331.64 268.68 L 331.50 208.40 L 331.46 212.50 L 331.07 215.19 L 330.53 270.78 L 330.26 207.18 L 330.19 213.34 L 329.61 265.92 L 327.34 212.95 L 327.29 217.97 L 326.98 271.10 L 325.96 215.45 L 324.99 204.27 L 324.75 219.23 L 324.20 270.03 L 323.30 217.18 L 322.90 219.34 L 321.42 271.40 L 319.00 273.46 L 317.01 201.96 L 314.16 201.54 L 310.31 197.22 L 305.33 283.97 L 304.18 194.62 L 303.03 283.68 L 302.74 287.71 L 301.31 192.46 L 298.93 191.21 L 298.78 285.72 L 296.60 191.67 L 295.36 188.45 L 295.14 286.76 L 293.89 194.62 L 293.26 190.26 L 292.28 186.22 L 289.74 194.84 L 289.49 192.81 L 287.53 285.55 L 284.92 183.88 L 284.72 249.30 L 284.39 256.28 L 284.36 246.69 L 283.41 244.17 L 283.35 252.74 L 283.13 258.95 L 281.04 283.44 L 280.84 262.87 L 280.46 265.79 L 280.09 185.40 L 279.67 285.48 L 279.34 266.19 L 278.34 236.43 L 276.64 185.91 L 275.53 233.16 L 274.44 264.11 L 273.91 283.26 L 272.98 232.82 L 272.68 187.34 L 272.11 264.90 L 271.87 268.69 L 271.49 266.70 L 271.38 270.30 L 270.48 233.10 L 268.55 285.63 L 267.79 187.62 L 267.14 271.44 L 266.67 190.67 L 266.52 273.41 L 266.15 186.28 L 266.12 192.05 L 265.74 231.15 L 265.12 187.62 L 262.90 192.74 L 262.22 190.41 L 261.45 273.79 L 260.85 231.48 L 260.80 191.07 L 260.40 285.37 L 258.51 271.29 L 257.94 284.58 L 257.00 231.99 L 255.66 189.43 L 255.65 283.04 L 255.10 271.68 L 254.15 233.18 L 254.13 274.52 L 253.45 187.44 L 252.31 234.95 L 252.17 186.94 L 251.25 237.67 L 250.41 187.62 L 249.18 239.62 L 248.85 191.08 L 247.94 193.25 L 245.24 192.79 L 244.60 243.05 L 244.27 191.07 L 243.91 243.99 L 243.48 137.30 L 242.89 193.15 L 242.27 188.81 L 241.94 191.08 L 241.75 186.83 L 240.82 192.81 L 239.53 186.82 L 237.57 244.86 L 237.24 138.35 L 236.06 192.34 L 233.40 138.29 L 233.12 195.80 L 231.93 244.05 L 231.92 141.22 L 231.78 196.94 L 227.03 142.33 L 226.95 243.90 L 226.62 139.33 L 225.48 200.27 L 224.73 139.14 L 224.51 136.78 L 223.68 200.53 L 223.49 241.04 L 223.00 135.60 L 222.80 137.91 L 222.65 198.86 L 220.92 142.57 L 220.07 138.09 L 219.61 199.23 L 218.96 197.28 L 218.85 240.71 L 218.37 140.72 L 217.47 144.22 L 216.61 198.00 L 215.41 137.20 L 215.28 141.14 L 214.90 239.64 L 213.58 199.80 L 212.99 139.04 L 212.88 144.42 L 212.70 136.59 L 212.03 193.90 L 211.30 196.98 L 210.94 193.67 L 210.46 144.22 L 208.83 143.06 L 207.96 138.87 L 206.71 191.01 L 206.20 238.33 L 205.66 139.09 L 204.07 187.17 L 204.04 238.59 L 203.59 138.65 L 201.30 237.24 L 200.46 137.20 L 200.17 186.31 L 199.17 234.92 L 197.43 231.30 L 195.72 138.92 L 195.51 184.92 L 195.26 142.64 L 193.51 225.64 L 193.37 196.54 L 193.27 141.18 L 192.94 199.22 L 192.77 189.13 L 192.24 139.03 L 192.24 223.15 L 191.91 195.30 L 191.88 214.68 L 191.53 202.26 L 191.45 141.23 L 191.45 218.91 L 191.36 137.05 L 191.22 205.28 L 191.15 138.45 L 190.98 206.98 L 190.51 144.22 L 190.10 203.96 L 189.82 209.14 L 189.16 215.24 L 189.05 206.97 L 188.43 210.92 L 188.03 196.40 L 188.01 135.40 L 187.02 194.62 L 186.39 212.12 L 186.15 214.28 L 185.31 139.89 L 185.27 145.18 L 184.60 198.83 L 184.38 137.94 L 184.20 141.30 L 183.64 146.54 L 183.58 201.54 L 182.63 140.84 L 182.40 197.92 L 181.81 146.80 L 181.66 200.79 L 181.63 203.78 L 180.98 169.39 L 180.50 189.62 L 180.33 165.71 L 180.33 201.89 L 180.05 204.78 L 179.93 184.24 L 179.74 171.43 L 179.65 162.51 L 179.31 192.91 L 179.00 187.25 L 178.83 182.66 L 178.32 146.03 L 178.26 197.35 L 178.23 200.59 L 177.95 205.02 L 177.92 159.99 L 177.54 199.57 L 177.27 158.09 L 177.02 149.05 L 176.59 152.94 L 175.91 204.18 L 175.72 198.86 L 175.60 182.40 L 175.32 156.80 L 174.94 174.65 L 174.74 155.63 L 173.47 176.72 L 173.45 200.43 L 170.21 200.41 L 169.24 198.65 L 168.37 201.10 L 164.46 198.04 L 160.10 198.13 L 155.16 198.87 L 151.03 199.33 L 147.18 204.13 L 144.52 205.89 L 141.86 206.23 L 135.86 205.78 L 133.77 206.10 L 131.53 208.54 L 128.63 210.12 L 126.27 209.32 L 124.14 214.11 L 123.86 221.04 L 123.57 223.48 L 123.46 218.82 L 121.89 215.36 L 121.08 217.61 L 120.65 226.69 L 118.64 227.27 L 115.95 235.27 L 114.93 239.63 L 114.83 232.91 L 113.84 241.05 L 113.29 231.88 L 111.59 241.27 L 109.69 242.01 L 108.54 236.46 L 108.10 233.75 L 104.66 234.27 L 104.27 242.00 L 103.68 232.47 L 103.22 234.64 L 102.96 230.59 L 102.53 244.24 L 101.69 233.52 L 101.10 244.93 L 100.97 231.34 L 98.78 240.19 L 97.95 243.11 L 96.19 240.66 L 93.68 234.91 L 93.64 239.28 L 93.11 237.25 L 90.68 233.42 L 90.27 236.64 L 87.37 237.99 L 84.84 248.43 L 84.54 237.92 L 84.18 240.84 L 84.15 251.12 L 83.82 239.27 L 81.99 242.34 L 80.79 251.93 L 80.79 249.26 L 79.27 247.13 L 78.93 253.20 L 78.16 242.97 L 77.49 252.83 L 76.81 243.99 L 75.99 245.91 L 69.99 256.14 L 69.43 259.24 L 66.47 261.20 L 62.93 260.81 L 59.43 252.72 L 58.42 257.67 L 57.44 255.49 L 57.01 250.32 L 56.89 256.93 L 52.94 248.35 L 49.87 249.79 L 48.04 261.56 L 48.00 269.76 L 47.71 249.34 L 47.70 267.32 L 47.47 259.81 L 46.86 262.31 L 46.84 268.26 L 46.47 271.11 L 45.91 250.17 L 45.74 247.68 L 45.53 282.20 L 45.19 261.62 L 44.86 273.59 L 44.57 256.71 L 44.23 277.64 L 43.80 281.52 L 43.67 252.65 L 43.49 258.59 L 41.51 279.06 L 41.34 256.33 L 41.08 263.69 L 40.86 275.76 L 39.95 273.57 L 39.54 256.64 L 38.95 220.79 L 38.61 218.05 L 37.39 260.09 L 36.96 224.16 L 36.01 219.70 L 34.85 210.69 L 34.79 216.07 L 34.21 213.40 L 31.93 271.52 L 30.77 224.35 L 29.22 226.88 L 27.66 228.89 L 26.46 272.95 L 26.42 208.54 L 24.69 220.64 L 24.65 208.76 L 23.95 223.40 L 23.75 268.31 L 23.60 214.44 L 23.46 225.31 L 23.41 221.31 L 23.40 271.76 L 22.94 267.19 L 22.93 212.25 L 22.63 222.65 L 21.30 218.41 L 20.90 223.61 L 20.88 214.38 L 19.91 221.90 L 19.58 219.78 L 19.29 271.77 L 16.28 272.16 L 12.71 269.39 L 12.59 281.77 L 11.68 279.52 L 11.25 282.82 L 11.19 270.67 L 10.30 254.83 L 10.05 277.05 L 9.62 257.06 L 9.28 283.20 L 9.02 285.30 L 8.87 271.26 L 8.08 255.10 L 8.08 272.93 L 8.05 265.63 L 7.90 257.70 L 7.60 289.06 L 7.56 253.46 L 6.32 275.15 L 6.29 253.41 L 5.98 269.60 L 4.49 276.69 L 4.40 256.81 L 4.34 279.24 L 3.97 268.19 L 3.90 271.01 L 3.08 257.69 L 2.82 281.19 L 2.05 269.27 L 1.85 256.47 L 1.15 282.20 L 1.00 271.17 L 1.00 284.74 L 0 284.74 Z" fill="#111111" stroke="none"/>
</svg>
