<svg xmlns="http://www.w3.org/2000/svg" viewBox="0 0 800 224" preserveAspectRatio="none">
  <path d="M 0 0 L 800 0 L 800 113.78 L 750.33 113.78 L 750.15 120.30 L 749.97 103.34 L 749.39 122.48 L 749.26 110.67 L 748.79 107.54 L 747.19 124.67 L 745.95 104.71 L 744.94 125.27 L 744.86 129.63 L 743.68 103.72 L 742.44 131.79 L 740.89 101.26 L 738.16 136.69 L 734.06 104.87 L 734.00 101.64 L 730.23 135.80 L 730.16 143.28 L 729.95 102.22 L 729.79 105.25 L 728.36 108.57 L 728.19 133.41 L 726.09 138.27 L 725.54 103.50 L 724.38 108.01 L 724.34 137.56 L 724.14 147.64 L 723.66 136.47 L 723.56 105.21 L 721.36 173.78 L 721.23 105.51 L 720.97 108.52 L 718.68 167.35 L 718.14 187.84 L 717.07 189.76 L 717.06 184.85 L 716.51 167.49 L 716.51 173.51 L 714.82 162.16 L 714.21 175.50 L 713.56 177.55 L 713.23 173.63 L 712.82 160.32 L 712.70 204.56 L 712.22 178.11 L 712.02 191.84 L 711.77 109.88 L 711.74 182.67 L 710.97 150.71 L 710.49 196.77 L 709.64 182.44 L 709.40 158.08 L 709.32 192.01 L 707.74 111.48 L 707.55 201.32 L 707.46 196.20 L 707.26 193.85 L 706.70 154.80 L 706.48 199.78 L 705.80 202.90 L 705.40 157.15 L 703.46 111.84 L 701.23 116.14 L 699.80 109.66 L 698.08 121.13 L 698.01 113.93 L 695.66 126.94 L 695.30 114.70 L 695.04 109.80 L 692.64 109.47 L 692.38 156.75 L 692.13 129.58 L 691.39 154.60 L 689.83 121.22 L 689.81 157.72 L 689.69 106.47 L 689.12 133.56 L 687.36 150.42 L 687.06 148.15 L 686.20 158.42 L 685.97 105.17 L 685.38 137.93 L 684.96 146.79 L 684.46 143.79 L 683.53 103.41 L 683.09 160.03 L 682.95 123.93 L 680.57 127.58 L 679.48 129.78 L 679.44 161.11 L 677.72 131.43 L 676.62 162.30 L 676.56 99.63 L 672.39 98.42 L 672.34 165.57 L 672.20 134.41 L 667.57 95.12 L 666.24 166.69 L 665.29 93.90 L 663.30 166.81 L 663.07 164.40 L 662.69 159.00 L 662.30 149.23 L 660.32 150.07 L 660.03 202.88 L 659.99 198.95 L 659.94 162.98 L 659.20 92.68 L 658.43 198.30 L 658.16 160.15 L 657.55 149.42 L 655.82 152.74 L 655.43 157.37 L 654.97 194.94 L 654.24 154.49 L 652.33 168.29 L 652.16 162.45 L 651.69 189.65 L 650.58 168.46 L 650.53 161.48 L 650.44 164.44 L 650.07 191.31 L 650.00 171.90 L 649.88 173.97 L 648.47 191.38 L 648.31 163.64 L 647.98 182.44 L 647.66 176.97 L 647.58 180.25 L 647.23 182.93 L 647.06 162.10 L 646.97 189.80 L 646.40 185.18 L 646.31 187.23 L 646.27 161.60 L 646.25 163.92 L 642.81 93.90 L 642.05 162.95 L 640.55 93.05 L 636.75 94.77 L 633.81 94.16 L 633.73 162.60 L 633.13 93.14 L 630.54 94.51 L 630.36 164.72 L 628.89 94.77 L 626.70 164.61 L 625.64 98.48 L 623.66 162.60 L 622.77 99.01 L 621.24 159.40 L 619.31 97.29 L 618.41 125.98 L 617.73 129.65 L 617.02 121.92 L 616.32 98.87 L 616.31 159.79 L 615.84 101.68 L 615.80 120.78 L 615.62 100.27 L 614.95 136.43 L 614.51 159.25 L 613.15 134.66 L 612.75 132.43 L 612.38 101.78 L 612.16 133.53 L 611.76 156.93 L 611.62 131.60 L 611.41 121.74 L 609.75 134.63 L 608.88 132.11 L 608.61 156.13 L 607.09 133.71 L 606.32 102.56 L 606.01 100.40 L 605.36 122.51 L 605.36 150.08 L 604.23 137.69 L 603.99 148.64 L 603.66 153.74 L 602.50 133.60 L 602.39 100.03 L 602.01 103.41 L 601.96 138.09 L 601.80 132.25 L 601.12 147.83 L 599.92 125.34 L 599.74 101.33 L 599.30 131.17 L 598.96 98.73 L 598.90 106.95 L 598.46 100.83 L 598.46 146.03 L 597.44 98.78 L 596.95 131.27 L 596.81 126.09 L 595.86 108.41 L 595.12 149.78 L 594.55 131.97 L 594.13 150.35 L 593.76 110.91 L 593.58 108.81 L 593.45 113.17 L 593.17 125.12 L 592.75 129.45 L 592.67 126.53 L 592.56 132.04 L 592.06 149.85 L 591.54 110.92 L 591.47 145.08 L 591.47 148.58 L 591.44 130.30 L 590.67 110.33 L 590.38 142.14 L 589.74 115.38 L 589.18 141.37 L 587.14 141.63 L 585.80 145.34 L 585.32 116.82 L 584.03 130.08 L 583.76 143.35 L 581.64 132.76 L 581.60 117.34 L 581.57 127.58 L 581.30 146.95 L 580.12 127.86 L 579.78 116.79 L 577.21 130.92 L 577.00 114.41 L 576.85 117.34 L 576.85 146.03 L 576.78 119.57 L 575.86 129.78 L 575.52 115.83 L 575.24 121.02 L 574.65 113.88 L 573.69 146.77 L 573.44 115.40 L 571.65 123.38 L 571.16 146.38 L 570.29 113.90 L 569.61 145.30 L 568.98 116.39 L 568.87 124.04 L 568.37 114.25 L 567.31 144.81 L 566.76 126.85 L 565.60 119.50 L 565.16 130.98 L 565.16 115.89 L 564.23 143.35 L 563.72 120.68 L 562.98 116.62 L 562.93 133.84 L 562.06 119.93 L 561.52 117.80 L 558.29 144.87 L 555.06 149.41 L 553.15 132.37 L 551.19 151.45 L 549.01 135.57 L 548.43 132.46 L 544.96 134.89 L 543.39 154.49 L 543.20 132.31 L 541.73 129.18 L 539.92 156.80 L 537.66 127.36 L 537.05 159.21 L 536.27 143.96 L 536.26 125.59 L 536.10 142.30 L 533.68 141.37 L 533.40 146.44 L 533.18 161.71 L 533.00 124.38 L 531.54 144.62 L 529.53 162.74 L 529.13 126.30 L 527.23 160.73 L 526.43 175.21 L 526.16 169.80 L 525.56 180.97 L 525.54 167.61 L 525.48 127.45 L 525.09 161.41 L 524.64 183.30 L 522.98 185.23 L 522.91 164.19 L 521.50 160.73 L 519.85 129.91 L 518.72 188.42 L 518.22 131.63 L 516.82 160.32 L 516.39 132.75 L 514.06 133.11 L 513.82 193.41 L 511.73 134.63 L 511.73 194.68 L 510.51 129.81 L 509.06 195.40 L 508.84 132.47 L 506.43 128.99 L 505.94 195.21 L 503.87 137.30 L 502.16 131.17 L 499.84 193.30 L 498.84 131.09 L 497.81 134.63 L 497.42 131.73 L 496.88 133.84 L 496.88 192.81 L 496.58 137.23 L 489.93 193.19 L 487.54 146.91 L 487.52 192.27 L 485.57 148.34 L 485.20 192.20 L 484.23 144.64 L 483.03 146.82 L 482.93 143.17 L 482.31 193.40 L 481.75 149.85 L 480.21 142.47 L 479.68 193.12 L 479.37 140.11 L 478.52 148.04 L 478.51 150.16 L 478.10 137.72 L 477.07 142.57 L 475.86 194.28 L 475.66 136.98 L 475.20 196.54 L 473.42 143.35 L 471.34 145.01 L 470.79 197.66 L 470.76 152.01 L 470.03 154.41 L 469.91 149.41 L 469.03 146.20 L 467.84 155.47 L 467.40 147.76 L 466.28 198.53 L 465.67 146.03 L 464.04 154.04 L 463.01 146.49 L 462.92 199.67 L 462.58 155.20 L 461.34 142.57 L 461.20 150.70 L 460.42 199.45 L 460.19 156.01 L 459.27 147.65 L 458.68 151.21 L 457.45 142.29 L 457.42 147.28 L 457.34 158.43 L 456.18 168.92 L 456.15 141.63 L 456.15 159.00 L 455.30 197.42 L 455.20 146.54 L 454.85 168.83 L 454.35 142.57 L 454.12 196.10 L 454.08 150.88 L 454.01 158.12 L 453.49 150.78 L 453.40 167.18 L 453.28 155.88 L 451.97 192.09 L 451.82 148.90 L 451.39 160.30 L 451.35 166.48 L 450.89 162.84 L 450.06 176.00 L 450.02 156.41 L 448.99 171.59 L 448.75 164.74 L 448.52 167.01 L 448.37 184.32 L 448.14 153.59 L 447.86 176.87 L 447.65 168.68 L 446.87 172.05 L 446.65 150.05 L 446.50 175.95 L 445.60 154.11 L 444.27 164.61 L 443.28 160.31 L 442.91 156.42 L 442.73 159.48 L 442.54 162.25 L 441.37 177.25 L 440.50 159.00 L 439.76 166.70 L 439.63 163.33 L 438.61 165.90 L 438.51 175.12 L 437.04 173.11 L 435.76 156.19 L 435.51 179.05 L 435.31 175.82 L 435.27 159.09 L 434.98 176.86 L 434.52 180.25 L 434.35 155.87 L 434.09 182.34 L 433.79 162.90 L 433.17 151.13 L 432.71 157.70 L 432.40 164.01 L 431.08 176.66 L 429.89 158.44 L 429.52 164.57 L 429.52 152.42 L 427.00 164.59 L 426.90 183.92 L 425.72 154.60 L 425.33 163.75 L 424.98 185.94 L 424.45 162.07 L 423.58 151.59 L 421.31 152.57 L 418.88 155.03 L 416.22 160.25 L 416.22 156.41 L 415.51 196.59 L 415.39 161.20 L 415.18 191.47 L 414.21 156.76 L 414.11 168.56 L 413.61 199.24 L 413.50 161.57 L 413.44 169.79 L 413.31 167.05 L 413.29 202.36 L 411.40 170.75 L 411.21 166.05 L 411.06 169.67 L 409.70 161.60 L 409.33 169.36 L 407.90 203.09 L 407.47 165.25 L 406.71 162.44 L 404.94 166.95 L 400.79 165.76 L 398.91 189.22 L 398.03 195.45 L 397.11 165.92 L 396.77 191.12 L 396.24 196.85 L 394.21 163.56 L 393.72 197.35 L 393.21 193.41 L 392.78 165.13 L 392.01 194.84 L 391.21 178.35 L 390.84 175.94 L 389.85 181.39 L 389.38 166.68 L 388.58 163.33 L 387.99 181.96 L 387.90 166.63 L 387.53 169.39 L 387.53 177.25 L 387.41 161.76 L 386.71 170.97 L 386.66 165.13 L 386.49 168.62 L 385.24 159.99 L 385.08 180.60 L 384.93 148.55 L 383.66 156.83 L 383.44 168.91 L 383.23 146.28 L 382.27 174.30 L 381.47 149.41 L 381.43 152.95 L 380.66 176.16 L 380.60 171.11 L 380.60 145.08 L 378.63 146.09 L 378.22 180.81 L 377.70 177.67 L 377.14 198.86 L 376.15 146.72 L 375.34 179.84 L 373.60 146.67 L 372.96 203.22 L 371.83 198.61 L 370.73 202.95 L 369.23 200.75 L 369.03 144.38 L 367.73 201.71 L 367.64 203.75 L 366.24 144.68 L 365.04 201.54 L 361.50 146.82 L 361.36 155.28 L 360.75 204.02 L 359.29 152.21 L 358.98 204.13 L 358.90 157.47 L 357.23 149.58 L 355.52 153.99 L 355.44 199.80 L 355.15 160.19 L 353.07 198.44 L 353.05 160.81 L 351.52 158.88 L 349.79 197.32 L 348.53 169.85 L 347.93 172.93 L 347.85 165.13 L 347.02 162.47 L 346.30 196.99 L 345.85 160.73 L 344.74 175.25 L 344.68 192.31 L 344.39 187.81 L 343.24 198.00 L 343.24 177.25 L 342.88 182.80 L 342.16 203.96 L 341.26 200.98 L 340.66 196.34 L 335.73 197.78 L 335.26 204.30 L 334.84 198.80 L 334.61 201.97 L 324.99 204.27 L 317.01 201.96 L 314.16 201.54 L 310.31 197.22 L 304.54 94.36 L 304.18 194.62 L 301.68 94.83 L 301.31 192.46 L 300.33 97.58 L 299.73 100.50 L 298.93 191.21 L 297.50 101.66 L 296.60 191.67 L 295.36 188.45 L 293.89 194.62 L 293.26 190.26 L 292.28 186.22 L 291.24 195.55 L 291.11 104.09 L 289.74 194.84 L 289.49 192.81 L 285.50 105.46 L 284.92 183.88 L 281.14 105.93 L 278.24 185.02 L 277.18 105.54 L 276.64 185.91 L 275.98 107.04 L 274.15 108.21 L 272.68 187.34 L 268.93 106.78 L 267.79 187.62 L 266.67 190.67 L 266.60 107.45 L 266.48 112.87 L 266.25 109.67 L 266.15 186.28 L 266.12 192.05 L 265.12 187.62 L 262.90 192.74 L 262.54 112.53 L 262.22 190.41 L 261.59 113.12 L 260.80 117.34 L 260.80 191.07 L 256.96 121.09 L 255.66 189.43 L 252.17 186.94 L 252.14 124.17 L 250.41 187.62 L 249.51 127.76 L 248.85 191.08 L 248.79 128.88 L 248.60 125.25 L 246.88 193.67 L 244.27 191.07 L 243.48 137.30 L 243.35 133.51 L 242.89 193.15 L 242.27 188.81 L 241.94 191.08 L 241.75 186.83 L 240.82 192.81 L 239.53 186.82 L 237.24 138.35 L 236.06 192.34 L 233.40 138.29 L 233.12 195.80 L 231.92 141.22 L 231.78 196.94 L 227.03 142.33 L 226.62 139.33 L 225.48 200.27 L 224.73 139.14 L 224.51 136.78 L 223.68 200.53 L 223.00 135.60 L 222.80 137.91 L 222.65 198.86 L 220.92 142.57 L 220.07 138.09 L 219.61 199.23 L 218.96 197.28 L 218.37 140.72 L 217.47 144.22 L 216.61 198.00 L 215.41 137.20 L 215.28 141.14 L 213.58 199.80 L 212.99 139.04 L 212.88 144.42 L 212.70 136.59 L 212.03 193.90 L 211.30 196.98 L 210.94 193.67 L 210.46 144.22 L 208.83 143.06 L 207.96 138.87 L 206.71 191.01 L 205.66 139.09 L 204.07 187.17 L 203.59 138.65 L 200.46 137.20 L 200.17 186.31 L 195.72 138.92 L 195.51 184.92 L 195.26 142.64 L 193.37 196.54 L 193.27 141.18 L 192.94 199.22 L 192.77 189.13 L 192.24 139.03 L 191.91 195.30 L 191.53 202.26 L 191.45 141.23 L 191.15 138.45 L 190.51 144.22 L 190.10 203.96 L 188.03 196.40 L 188.01 135.40 L 187.02 194.62 L 185.31 139.89 L 185.27 145.18 L 184.60 198.83 L 184.38 137.94 L 184.20 141.30 L 183.64 146.54 L 183.58 201.54 L 182.63 140.84 L 182.40 197.92 L 181.81 146.80 L 181.66 200.79 L 181.63 203.78 L 180.98 169.39 L 180.50 189.62 L 180.33 165.71 L 180.33 201.89 L 180.05 204.78 L 179.93 184.24 L 179.74 171.43 L 179.65 162.51 L 179.31 192.91 L 179.00 187.25 L 178.83 182.66 L 178.32 146.03 L 178.26 197.35 L 178.23 200.59 L 177.92 159.99 L 177.54 199.57 L 177.27 158.09 L 177.02 149.05 L 176.59 152.94 L 175.91 204.18 L 175.72 198.86 L 175.60 182.40 L 175.32 156.80 L 174.94 174.65 L 174.74 155.63 L 173.47 176.72 L 173.45 200.43 L 170.21 200.41 L 169.24 198.65 L 168.37 201.10 L 164.46 198.04 L 160.10 198.13 L 155.16 198.87 L 151.03 199.33 L 147.18 204.13 L 0 204.13 Z" fill="white" stroke="none"/>
</svg>
