<svg xmlns="http://www.w3.org/2000/svg" viewBox="0 0 800 344" preserveAspectRatio="none">
  <path d="M 0 0 L 800 0 L 800.0 122.5 L 750.0 122.5 L 746.0 129.6 L 742.0 131.8 L 738.0 136.7 L 734.0 104.9 L 730.0 143.3 L 726.0 147.6 L 722.0 136.5 L 718.0 167.5 L 714.0 162.2 L 710.0 158.1 L 706.0 157.2 L 702.0 117.7 L 698.0 121.1 L 694.0 156.8 L 690.0 157.7 L 686.0 158.4 L 682.0 160.0 L 678.0 162.3 L 674.0 165.6 L 666.0 166.7 L 662.0 166.8 L 658.0 163.0 L 654.0 168.3 L 650.0 168.5 L 646.0 163.9 L 642.0 162.9 L 638.0 94.8 L 634.0 162.6 L 630.0 164.7 L 626.0 164.6 L 622.0 162.6 L 618.0 159.8 L 614.0 159.2 L 610.0 156.9 L 606.0 150.1 L 602.0 153.7 L 598.0 146.0 L 594.0 150.3 L 590.0 148.6 L 586.0 145.3 L 582.0 146.9 L 578.0 146.0 L 574.0 146.8 L 570.0 146.4 L 566.0 144.8 L 562.0 133.8 L 558.0 144.9 L 554.0 149.4 L 550.0 151.4 L 546.0 134.9 L 542.0 154.5 L 538.0 159.2 L 534.0 161.7 L 530.0 162.7 L 526.0 169.8 L 522.0 164.2 L 518.0 160.3 L 514.0 133.1 L 510.0 134.6 L 506.0 129.0 L 502.0 137.3 L 498.0 137.2 L 486.0 148.3 L 482.0 149.8 L 478.0 150.2 L 474.0 143.3 L 470.0 154.4 L 466.0 155.5 L 462.0 156.0 L 458.0 168.9 L 454.0 168.8 L 450.0 167.0 L 446.0 168.7 L 442.0 162.2 L 438.0 166.7 L 434.0 164.0 L 430.0 164.6 L 426.0 164.6 L 422.0 152.6 L 418.0 160.2 L 414.0 169.8 L 410.0 169.7 L 406.0 168.0 L 402.0 165.8 L 398.0 165.9 L 394.0 165.1 L 390.0 166.7 L 386.0 169.4 L 382.0 168.9 L 378.0 146.7 L 374.0 146.7 L 370.0 144.4 L 366.0 144.7 L 362.0 155.3 L 358.0 157.5 L 354.0 160.8 L 350.0 169.8 L 346.0 165.1 L 314.0 88.0 L 306.0 94.4 L 302.0 97.6 L 298.0 101.7 L 290.0 104.1 L 286.0 105.5 L 282.0 105.9 L 278.0 105.5 L 274.0 108.2 L 270.0 106.8 L 266.0 112.9 L 262.0 117.3 L 258.0 121.1 L 254.0 124.2 L 250.0 128.9 L 242.0 137.3 L 238.0 138.3 L 234.0 138.3 L 230.0 141.2 L 226.0 142.3 L 222.0 142.6 L 218.0 144.2 L 214.0 144.4 L 210.0 144.2 L 206.0 139.1 L 202.0 138.7 L 194.0 142.6 L 190.0 144.2 L 186.0 145.2 L 182.0 169.4 L 178.0 162.5 L 174.0 156.8 L 0.0 156.8 Z" fill="white" stroke="none"/>
</svg>